# xmcd CD database file
#
# Track frame offsets:
#	150
#	26357
#	53641
#	92346
#	112451
#	141106
#	171340
#	199061
#	224293
#
# Disc length: 3296 seconds
#
# Revision: 0
# Processed by: cddbd v1.5.2PL0 Copyright (c) Steve Scherf et al.
# Submitted via: CDex 1.51
#
DISCID=7d0cde09
DTITLE=The Season of Us - Sacred Steps
DYEAR=2004
DGENRE=Jazz
TTITLE0=The Season of Us
TTITLE1=Cosmic Funnel
TTITLE2=Heart Felt Good Vibes
TTITLE3=Solo Flute One
TTITLE4=IMEYAV
TTITLE5=Twilight
TTITLE6=Solo Flute Two
TTITLE7=Walking Eash Other Home
TTITLE8=The Sweetness
EXTD=YEAR: 2004
EXTT0=
EXTT1=
EXTT2=
EXTT3=
EXTT4=
EXTT5=
EXTT6=
EXTT7=
EXTT8=
PLAYORDER=
